<svg width="61" height="61" viewBox="0 0 61 61" fill="none" xmlns="http://www.w3.org/2000/svg">
<g filter="url(#filter0_d)">
<path d="M27.8333 31.6667C31.9754 31.6667 35.3333 28.3088 35.3333 24.1667C35.3333 20.0245 31.9754 16.6667 27.8333 16.6667C23.6912 16.6667 20.3333 20.0245 20.3333 24.1667C20.3333 28.3088 23.6912 31.6667 27.8333 31.6667Z" fill="#FFDED5"/>
<path d="M40.3334 25.6667H22L22.6763 20.3333H39.6569L40.3334 25.6667Z" fill="#E7D1C4"/>
<path d="M40.3334 26H22C21.9043 26 21.8132 25.9588 21.75 25.8871C21.6865 25.8153 21.6573 25.7197 21.6693 25.6247L22.3457 20.2914C22.3668 20.1248 22.5084 20 22.6764 20H39.6569C39.8249 20 39.9665 20.1248 39.9877 20.2913L40.6641 25.6247C40.6762 25.7197 40.6469 25.8152 40.5834 25.887C40.5202 25.9588 40.429 26 40.3334 26ZM22.3783 25.3333H39.9551L39.3633 20.6667H22.97L22.3783 25.3333Z" fill="#4C241D"/>
<path d="M25.2993 17.3333H28.3333V18.6667H25.2993V17.3333Z" fill="white"/>
<path d="M28.3333 19H25.2994C25.1151 19 24.9661 18.8507 24.9661 18.6666V17.3333C24.9661 17.1492 25.1151 17 25.2994 17H28.3333C28.5176 17 28.6666 17.1492 28.6666 17.3333V18.6666C28.6666 18.8507 28.5176 19 28.3333 19ZM25.6327 18.3333H28V17.6667H25.6327V18.3333Z" fill="#4C241D"/>
<path d="M28 22.6667V18.6667H25.6701V22.6667H25.6667L24.5906 23.8559C24.2104 24.2761 24 24.8223 24 25.3889V33.3503H29.6667V25.3889C29.6667 24.8224 29.4562 24.2761 29.0761 23.856L28 22.6667Z" fill="#F53E28"/>
<path d="M29.6667 33.6836H24C23.8158 33.6836 23.6667 33.5343 23.6667 33.3502V25.3888C23.6667 24.7386 23.9069 24.1149 24.3431 23.6323L25.3366 22.5347V18.6667C25.3366 18.4826 25.4857 18.3333 25.6699 18.3333H28C28.1843 18.3333 28.3334 18.4826 28.3334 18.6667V22.5382L29.3233 23.6323C29.7598 24.1149 30 24.7386 30 25.3888V33.3502C30 33.5343 29.8509 33.6836 29.6667 33.6836ZM24.3334 33.0169H29.3334V25.3888C29.3334 24.9042 29.1544 24.4392 28.8288 24.0796L27.7529 22.8903C27.6973 22.8291 27.6667 22.7493 27.6667 22.6667V19H26.0033V22.6667C26.0033 22.7672 25.9587 22.8572 25.8884 22.9184L24.8375 24.0796C24.5124 24.4392 24.3334 24.9042 24.3334 25.3888V33.0169Z" fill="#4C241D"/>
<path d="M33.966 17.3333H37V18.6667H33.966V17.3333Z" fill="white"/>
<path d="M37 19H33.9661C33.7819 19 33.6328 18.8507 33.6328 18.6666V17.3333C33.6328 17.1492 33.7819 17 33.9661 17H37C37.1842 17 37.3333 17.1492 37.3333 17.3333V18.6666C37.3333 18.8507 37.1842 19 37 19ZM34.2994 18.3333H36.6666V17.6667H34.2995V18.3333H34.2994Z" fill="#4C241D"/>
<path d="M36.6667 22.6667V18.6667H34.3368V22.6667H34.3334L33.2519 23.8619C32.8753 24.2782 32.6667 24.8196 32.6667 25.3809V33.3503H38.3333V25.3809C38.3333 24.8195 38.1248 24.2782 37.7481 23.8619L36.6667 22.6667Z" fill="#F53E28"/>
<path d="M38.3333 33.6836H32.6666C32.4824 33.6836 32.3333 33.5343 32.3333 33.3502V25.3808C32.3333 24.7357 32.5719 24.1168 33.0049 23.6382L34.0032 22.5347V18.6667C34.0032 18.4826 34.1523 18.3333 34.3366 18.3333H36.6666C36.8509 18.3333 37 18.4826 37 18.6667V22.5382L37.9951 23.6382C38.428 24.1168 38.6666 24.7357 38.6666 25.3808V33.3502C38.6666 33.5343 38.5176 33.6836 38.3333 33.6836V33.6836ZM33 33.0169H38V25.3808C38 24.9013 37.8226 24.4412 37.501 24.0854L36.4196 22.8902C36.3639 22.8291 36.3333 22.7493 36.3333 22.6667V19H34.6699V22.6667C34.6699 22.7672 34.6253 22.8572 34.555 22.9184L33.499 24.0854C33.1774 24.4412 33 24.9013 33 25.3808V33.0169Z" fill="#4C241D"/>
<path d="M29.6327 17.3333H32.6667V18.6667H29.6327V17.3333Z" fill="white"/>
<path d="M32.6667 19H29.6328C29.4486 19 29.2995 18.8507 29.2995 18.6666V17.3333C29.2995 17.1492 29.4486 17 29.6328 17H32.6667C32.8509 17 33 17.1492 33 17.3333V18.6666C33 18.8507 32.8509 19 32.6667 19ZM29.9661 18.3333H32.3333V17.6667H29.9662V18.3333H29.9661Z" fill="#4C241D"/>
<path d="M32.3333 22.6667V18.6667H30.0034V22.6667H30L28.8455 23.9427C28.5159 24.307 28.3333 24.7807 28.3333 25.272V33.3503H34V25.272C34 24.7807 33.8175 24.3069 33.4878 23.9427L32.3333 22.6667Z" fill="#E66353"/>
<path d="M34 33.6836H28.3333C28.1491 33.6836 28 33.5343 28 33.3502V25.272C28 24.6972 28.2126 24.1457 28.5983 23.7191L29.6699 22.5347V18.6667C29.6699 18.4826 29.819 18.3333 30.0033 18.3333H32.3333C32.5176 18.3333 32.6667 18.4826 32.6667 18.6667V22.5382L33.735 23.7191C34.1208 24.1457 34.3334 24.6971 34.3334 25.272V33.3502C34.3334 33.5343 34.1843 33.6836 34 33.6836ZM28.6667 33.0169H33.6667V25.272C33.6667 24.8627 33.5153 24.4701 33.2409 24.1663L32.0863 22.8903C32.0306 22.8291 32 22.7493 32 22.6667V19H30.3366V22.6667C30.3366 22.7672 30.292 22.8572 30.2217 22.9184L29.0924 24.1663C28.818 24.4701 28.6667 24.8626 28.6667 25.272V33.0169Z" fill="#4C241D"/>
<path d="M22 25.6667H40.3334V36H22V25.6667Z" fill="#B5A19C"/>
<path d="M40.3334 36.3333H22C21.8158 36.3333 21.6667 36.1841 21.6667 36V25.6667C21.6667 25.4826 21.8158 25.3333 22 25.3333H40.3334C40.5176 25.3333 40.6667 25.4826 40.6667 25.6667V36C40.6667 36.1841 40.5176 36.3333 40.3334 36.3333ZM22.3334 35.6667H40V26H22.3334V35.6667Z" fill="#4C241D"/>
<path d="M22 29H40.3334V32.6667H22V29Z" fill="#F53E28"/>
<path d="M40.3334 33H22C21.8158 33 21.6667 32.8507 21.6667 32.6667V29C21.6667 28.8159 21.8158 28.6667 22 28.6667H40.3334C40.5176 28.6667 40.6667 28.8159 40.6667 29V32.6667C40.6667 32.8507 40.5176 33 40.3334 33ZM22.3334 32.3333H40V29.3333H22.3334V32.3333Z" fill="#4C241D"/>
<path d="M31.1667 33.3333C32.5474 33.3333 33.6667 32.214 33.6667 30.8333C33.6667 29.4526 32.5474 28.3333 31.1667 28.3333C29.786 28.3333 28.6667 29.4526 28.6667 30.8333C28.6667 32.214 29.786 33.3333 31.1667 33.3333Z" fill="white"/>
<path d="M31.1667 33.6667C29.6045 33.6667 28.3333 32.3957 28.3333 30.8333C28.3333 29.271 29.6045 28 31.1667 28C32.7288 28 34 29.271 34 30.8333C34 32.3957 32.7288 33.6667 31.1667 33.6667ZM31.1667 28.6667C29.972 28.6667 29 29.6387 29 30.8333C29 32.028 29.972 33 31.1667 33C32.3613 33 33.3333 32.028 33.3333 30.8333C33.3333 29.6387 32.3613 28.6667 31.1667 28.6667Z" fill="#4C241D"/>
<path d="M31.1667 32.4063C30.2995 32.4063 29.5938 31.7007 29.5938 30.8333C29.5938 29.966 30.2995 29.2604 31.1667 29.2604C32.0338 29.2604 32.7396 29.966 32.7396 30.8333C32.7396 31.7007 32.0338 32.4063 31.1667 32.4063ZM31.1667 29.9271C30.667 29.9271 30.2604 30.3337 30.2604 30.8333C30.2604 31.333 30.667 31.7396 31.1667 31.7396C31.6663 31.7396 32.0729 31.333 32.0729 30.8333C32.0729 30.3337 31.6663 29.9271 31.1667 29.9271Z" fill="#A9BA5A"/>
</g>
<defs>
<filter id="filter0_d" x="-2" y="-2" width="65" height="65" filterUnits="userSpaceOnUse" color-interpolation-filters="sRGB">
<feFlood flood-opacity="0" result="BackgroundImageFix"/>
<feColorMatrix in="SourceAlpha" type="matrix" values="0 0 0 0 0 0 0 0 0 0 0 0 0 0 0 0 0 0 127 0"/>
<feOffset dy="4"/>
<feGaussianBlur stdDeviation="10"/>
<feColorMatrix type="matrix" values="0 0 0 0 0.792157 0 0 0 0 0.254902 0 0 0 0 0.184314 0 0 0 1 0"/>
<feBlend mode="normal" in2="BackgroundImageFix" result="effect1_dropShadow"/>
<feBlend mode="normal" in="SourceGraphic" in2="effect1_dropShadow" result="shape"/>
</filter>
</defs>
</svg>
