<svg width="63" height="63" viewBox="0 0 63 63" fill="none" xmlns="http://www.w3.org/2000/svg">
<g filter="url(#filter0_d)">
<path d="M37.75 26.2031C37.6464 26.2031 37.5471 26.162 37.4738 26.0887C37.4005 26.0155 37.3594 25.9161 37.3594 25.8125C37.3594 24.2585 36.7421 22.7681 35.6432 21.6693C34.5444 20.5705 33.054 19.9531 31.5 19.9531C29.946 19.9531 28.4557 20.5705 27.3568 21.6693C26.258 22.7681 25.6406 24.2585 25.6406 25.8125C25.6406 25.9161 25.5995 26.0155 25.5262 26.0887C25.453 26.162 25.3536 26.2031 25.25 26.2031C25.1464 26.2031 25.0471 26.162 24.9738 26.0887C24.9005 26.0155 24.8594 25.9161 24.8594 25.8125C24.8594 24.0513 25.559 22.3622 26.8044 21.1169C28.0497 19.8715 29.7388 19.1719 31.5 19.1719C33.2612 19.1719 34.9503 19.8715 36.1956 21.1169C37.441 22.3622 38.1406 24.0513 38.1406 25.8125C38.1406 25.9161 38.0995 26.0155 38.0262 26.0887C37.953 26.162 37.8536 26.2031 37.75 26.2031Z" fill="#A1D51C"/>
<path d="M26.8125 24.25H36.1875V33.625H26.8125V24.25Z" fill="#57B7EB"/>
<path d="M28.7656 25.0312V24.25H26.8125V33.625H36.1875V29.7188H33.4531C32.2099 29.7188 31.0176 29.2249 30.1386 28.3458C29.2595 27.4667 28.7656 26.2745 28.7656 25.0312Z" fill="#4891D3"/>
<path d="M29.9375 30.1094H33.0625V31.6719H29.9375V30.1094Z" fill="#2D72BC"/>
<path d="M24.4688 25.4219H26.8125V29.3281H24.4688C24.2616 29.3281 24.0629 29.2458 23.9163 29.0993C23.7698 28.9528 23.6875 28.7541 23.6875 28.5469V26.2031C23.6875 25.9959 23.7698 25.7972 23.9163 25.6507C24.0629 25.5042 24.2616 25.4219 24.4688 25.4219Z" fill="#F9E109"/>
<path d="M24.4688 33.625H38.5313C38.7385 33.625 38.9372 33.7073 39.0837 33.8538C39.2302 34.0003 39.3125 34.199 39.3125 34.4062V41.8281H23.6875V34.4062C23.6875 34.199 23.7698 34.0003 23.9163 33.8538C24.0629 33.7073 24.2616 33.625 24.4688 33.625Z" fill="#57B7EB"/>
<path d="M26.4219 34.4062V33.625H24.4688C24.2616 33.625 24.0629 33.7073 23.9163 33.8538C23.7698 34.0003 23.6875 34.199 23.6875 34.4062V41.8281H39.3125V40.2656H32.2813C30.7273 40.2656 29.2369 39.6483 28.1381 38.5495C27.0392 37.4506 26.4219 35.9603 26.4219 34.4062Z" fill="#4891D3"/>
<path d="M22.9063 26.3984H23.6875V28.3516H22.9063C22.6991 28.3516 22.5004 28.2693 22.3538 28.1227C22.2073 27.9762 22.125 27.7775 22.125 27.5703V27.1797C22.125 26.9725 22.2073 26.7738 22.3538 26.6273C22.5004 26.4807 22.6991 26.3984 22.9063 26.3984Z" fill="#C4F236"/>
<path d="M39.3125 35.5781H40.875C41.2894 35.5781 41.6868 35.7427 41.9799 36.0358C42.2729 36.3288 42.4375 36.7262 42.4375 37.1406V41.8281H39.3125V35.5781Z" fill="#F9E109"/>
<path d="M36.1875 35.1875H37.75V36.75H36.1875V35.1875Z" fill="#F9E109"/>
<path d="M36.1875 36.75H37.75V38.3125H36.1875V36.75Z" fill="#FCBC04"/>
<path d="M36.1875 38.3125H37.75V39.875H36.1875V38.3125Z" fill="#E59730"/>
<path d="M25.25 35.1875H27.5938V36.75H25.25V35.1875Z" fill="#F9E109"/>
<path d="M33.8438 38.7031C33.8427 38.5604 33.8297 38.4179 33.8047 38.2773L34.5859 37.8164L33.8047 36.4648L33.0234 36.9219C32.8033 36.737 32.552 36.5928 32.2813 36.4961V35.5781H30.7188V36.4961C30.448 36.5928 30.1967 36.737 29.9766 36.9219L29.1953 36.4648L28.4141 37.8164L29.1953 38.2773C29.1433 38.5588 29.1433 38.8474 29.1953 39.1289L28.4141 39.5898L29.1953 40.9414L29.9766 40.4844C30.1967 40.6693 30.448 40.8135 30.7188 40.9102V41.8281H32.2813V40.9102C32.552 40.8135 32.8033 40.6693 33.0234 40.4844L33.8047 40.9414L34.5859 39.5898L33.8047 39.1289C33.8297 38.9883 33.8427 38.8459 33.8438 38.7031ZM31.5 39.4844C31.3455 39.4844 31.1944 39.4386 31.066 39.3527C30.9375 39.2669 30.8374 39.1449 30.7782 39.0021C30.7191 38.8593 30.7036 38.7023 30.7338 38.5507C30.7639 38.3992 30.8383 38.26 30.9476 38.1507C31.0568 38.0414 31.196 37.967 31.3476 37.9369C31.4991 37.9067 31.6562 37.9222 31.799 37.9813C31.9417 38.0405 32.0637 38.1406 32.1496 38.2691C32.2354 38.3976 32.2813 38.5486 32.2813 38.7031C32.2813 38.9103 32.1989 39.109 32.0524 39.2556C31.9059 39.4021 31.7072 39.4844 31.5 39.4844Z" fill="#C4F236"/>
<path d="M33.4531 40.2656C32.3999 40.265 31.3835 39.8776 30.5971 39.1769C29.8107 38.4762 29.3091 37.5111 29.1875 36.4648L28.4063 37.8164L29.1875 38.2773C29.1355 38.5588 29.1355 38.8474 29.1875 39.1289L28.4063 39.5898L29.1875 40.9414L29.9688 40.4844C30.1912 40.6701 30.4453 40.8143 30.7188 40.9102V41.8281H32.2813V40.9102C32.552 40.8135 32.8033 40.6693 33.0234 40.4844L33.8047 40.9414L34.2344 40.1875C33.9771 40.2384 33.7154 40.2646 33.4531 40.2656Z" fill="#A1D51C"/>
<path d="M27.9844 22.6875H35.0156V24.25H27.9844V22.6875Z" fill="#A1D51C"/>
<path d="M25.25 36.75H26.9141C26.6974 36.2519 26.5515 35.726 26.4805 35.1875H25.25V36.75Z" fill="#FCBC04"/>
<path d="M33.0235 40.4844L33.8047 40.9414L34.1953 40.2656H32.2813C31.1062 40.2677 29.9581 39.9136 28.9883 39.25L28.4024 39.5898L29.1836 40.9414L29.9649 40.4844C30.1885 40.6705 30.4439 40.8147 30.7188 40.9102V41.8281H32.2813V40.9102C32.552 40.8135 32.8033 40.6693 33.0235 40.4844Z" fill="#7AB92D"/>
<path d="M29.1563 22.6875H35.0156V23.4688H29.9375C29.7303 23.4688 29.5316 23.3864 29.3851 23.2399C29.2386 23.0934 29.1563 22.8947 29.1563 22.6875Z" fill="#C4F236"/>
<path d="M23.2969 26.5938V26.3984H23.6875V28.3516H22.9063C22.6991 28.3516 22.5004 28.2693 22.3538 28.1227C22.2073 27.9762 22.125 27.7775 22.125 27.5703V27.375H22.5156C22.7228 27.375 22.9216 27.2927 23.0681 27.1462C23.2146 26.9997 23.2969 26.801 23.2969 26.5938Z" fill="#A1D51C"/>
<path d="M25.6406 26.5938V25.4219H26.8125V29.3281H24.4688C24.2616 29.3281 24.0629 29.2458 23.9163 29.0993C23.7698 28.9528 23.6875 28.7541 23.6875 28.5469V28.1562H24.0781C24.4925 28.1562 24.89 27.9916 25.183 27.6986C25.476 27.4056 25.6406 27.0082 25.6406 26.5938Z" fill="#FCBC04"/>
<path d="M40.0938 38.7031V35.5781H39.3125V41.8281H42.4375V41.0469C41.8159 41.0469 41.2198 40.7999 40.7802 40.3604C40.3407 39.9209 40.0938 39.3247 40.0938 38.7031Z" fill="#FCBC04"/>
<path d="M39.3125 37.1406H42.4375V38.7031H39.3125V37.1406Z" fill="#FCBC04"/>
<path d="M39.3125 40.2656H42.4375V41.8281H39.3125V40.2656Z" fill="#FCBC04"/>
<path d="M39.3125 37.1406H40.0938V38.7031H39.3125V37.1406Z" fill="#E59730"/>
<path d="M39.3125 41.8281H42.4375V41.0469C42.1085 41.0462 41.7834 40.9763 41.4833 40.8417C41.1831 40.7071 40.9146 40.5108 40.6953 40.2656H39.3125V41.8281Z" fill="#E59730"/>
<path d="M23.6875 41.8281H20.5625V37.1406C20.5625 36.7262 20.7271 36.3288 21.0202 36.0358C21.3132 35.7427 21.7106 35.5781 22.125 35.5781H23.6875V41.8281Z" fill="#F9E109"/>
<path d="M22.9063 38.7031V35.5781H23.6875V41.8281H20.5625V41.0469C21.1841 41.0469 21.7803 40.7999 22.2198 40.3604C22.6593 39.9209 22.9063 39.3247 22.9063 38.7031Z" fill="#FCBC04"/>
<path d="M23.6875 38.7031H20.5625V37.1406H23.6875V38.7031Z" fill="#FCBC04"/>
<path d="M23.6875 41.8281H20.5625V40.2656H23.6875V41.8281Z" fill="#FCBC04"/>
<path d="M22.9063 37.1406H23.6875V38.7031H22.9063V37.1406Z" fill="#E59730"/>
<path d="M23.6875 41.8281H20.5625V41.0469C20.8915 41.0462 21.2166 40.9763 21.5168 40.8417C21.8169 40.7071 22.0854 40.5108 22.3047 40.2656H23.6875V41.8281Z" fill="#E59730"/>
<path d="M34.2344 27.375H32.6719C32.5683 27.375 32.4689 27.3338 32.3957 27.2606C32.3224 27.1873 32.2813 27.088 32.2813 26.9844C32.2813 26.8808 32.3224 26.7814 32.3957 26.7082C32.4689 26.6349 32.5683 26.5938 32.6719 26.5938H34.2344C34.338 26.5938 34.4373 26.6349 34.5106 26.7082C34.5839 26.7814 34.625 26.8808 34.625 26.9844C34.625 27.088 34.5839 27.1873 34.5106 27.2606C34.4373 27.3338 34.338 27.375 34.2344 27.375Z" fill="#F9E109"/>
<path d="M30.3281 27.375H28.7656C28.662 27.375 28.5627 27.3338 28.4894 27.2606C28.4162 27.1873 28.375 27.088 28.375 26.9844C28.375 26.8808 28.4162 26.7814 28.4894 26.7082C28.5627 26.6349 28.662 26.5938 28.7656 26.5938H30.3281C30.4317 26.5938 30.5311 26.6349 30.6044 26.7082C30.6776 26.7814 30.7188 26.8808 30.7188 26.9844C30.7188 27.088 30.6776 27.1873 30.6044 27.2606C30.5311 27.3338 30.4317 27.375 30.3281 27.375Z" fill="#F9E109"/>
<path d="M36.9688 31.6719H34.625C34.5214 31.6719 34.4221 31.6307 34.3488 31.5575C34.2756 31.4842 34.2344 31.3849 34.2344 31.2812C34.2344 31.1776 34.2756 31.0783 34.3488 31.005C34.4221 30.9318 34.5214 30.8906 34.625 30.8906H36.9688C37.0724 30.8906 37.1717 30.8495 37.245 30.7762C37.3182 30.703 37.3594 30.6036 37.3594 30.5V28.9375C37.3594 28.8339 37.4006 28.7345 37.4738 28.6613C37.5471 28.588 37.6464 28.5469 37.75 28.5469C37.8536 28.5469 37.953 28.588 38.0262 28.6613C38.0995 28.7345 38.1406 28.8339 38.1406 28.9375V30.5C38.1406 30.8108 38.0172 31.1089 37.7974 31.3286C37.5776 31.5484 37.2796 31.6719 36.9688 31.6719Z" fill="#A1D51C"/>
<path d="M26.8125 38.7031H25.6406C25.537 38.7031 25.4377 38.662 25.3644 38.5887C25.2912 38.5155 25.25 38.4161 25.25 38.3125C25.25 38.2089 25.2912 38.1095 25.3644 38.0363C25.4377 37.963 25.537 37.9219 25.6406 37.9219H26.8125C26.9161 37.9219 27.0155 37.963 27.0887 38.0363C27.162 38.1095 27.2031 38.2089 27.2031 38.3125C27.2031 38.4161 27.162 38.5155 27.0887 38.5887C27.0155 38.662 26.9161 38.7031 26.8125 38.7031Z" fill="#A1D51C"/>
<path d="M36.1875 25.4219H38.5313C38.7385 25.4219 38.9372 25.5042 39.0837 25.6507C39.2302 25.7972 39.3125 25.9959 39.3125 26.2031V28.5469C39.3125 28.7541 39.2302 28.9528 39.0837 29.0993C38.9372 29.2458 38.7385 29.3281 38.5313 29.3281H36.1875V25.4219Z" fill="#F9E109"/>
<path d="M39.3125 26.3984H40.0938C40.301 26.3984 40.4997 26.4807 40.6462 26.6273C40.7927 26.7738 40.875 26.9725 40.875 27.1797V27.5703C40.875 27.7775 40.7927 27.9762 40.6462 28.1227C40.4997 28.2693 40.301 28.3516 40.0938 28.3516H39.3125V26.3984Z" fill="#C4F236"/>
<path d="M39.7031 26.5938V26.3984H39.3125V28.3516H40.0938C40.301 28.3516 40.4997 28.2693 40.6462 28.1227C40.7927 27.9762 40.875 27.7775 40.875 27.5703V27.375H40.4844C40.2772 27.375 40.0785 27.2927 39.932 27.1462C39.7854 26.9997 39.7031 26.801 39.7031 26.5938Z" fill="#A1D51C"/>
<path d="M37.3594 26.5938V25.4219H36.1875V29.3281H38.5313C38.7385 29.3281 38.9372 29.2458 39.0837 29.0993C39.2302 28.9528 39.3125 28.7541 39.3125 28.5469V28.1562H38.9219C38.5075 28.1562 38.1101 27.9916 37.817 27.6986C37.524 27.4056 37.3594 27.0082 37.3594 26.5938Z" fill="#FCBC04"/>
</g>
<defs>
<filter id="filter0_d" x="-0.999985" y="-1" width="65" height="65" filterUnits="userSpaceOnUse" color-interpolation-filters="sRGB">
<feFlood flood-opacity="0" result="BackgroundImageFix"/>
<feColorMatrix in="SourceAlpha" type="matrix" values="0 0 0 0 0 0 0 0 0 0 0 0 0 0 0 0 0 0 127 0"/>
<feOffset dy="1"/>
<feGaussianBlur stdDeviation="10"/>
<feColorMatrix type="matrix" values="0 0 0 0 0.282353 0 0 0 0 0.568627 0 0 0 0 0.827451 0 0 0 1 0"/>
<feBlend mode="normal" in2="BackgroundImageFix" result="effect1_dropShadow"/>
<feBlend mode="normal" in="SourceGraphic" in2="effect1_dropShadow" result="shape"/>
</filter>
</defs>
</svg>
