<svg width="150" height="150" viewBox="0 0 150 150" fill="none" xmlns="http://www.w3.org/2000/svg">
<path d="M85.7861 55.4878C86.9991 55.4878 87.9833 54.5048 87.9833 53.2906V49.0002C87.9833 47.786 86.9991 46.8029 85.7861 46.8029C84.573 46.8029 83.5888 47.786 83.5888 49.0002V53.2906C83.5888 54.5048 84.573 55.4878 85.7861 55.4878Z" fill="white"/>
<path d="M82.8632 61.7958H88.7089C89.9219 61.7958 90.9061 60.8128 90.9061 59.5985C90.9061 58.3855 89.9219 57.4013 88.7089 57.4013H82.8632C81.6501 57.4013 80.666 58.3855 80.666 59.5985C80.666 60.8128 81.6501 61.7958 82.8632 61.7958Z" fill="white"/>
<path d="M41.6439 55.4878C42.857 55.4878 43.8412 54.5048 43.8412 53.2906V49.0002C43.8412 47.786 42.857 46.8029 41.6439 46.8029C40.4297 46.8029 39.4467 47.786 39.4467 49.0002V53.2906C39.4467 54.5048 40.4297 55.4878 41.6439 55.4878Z" fill="white"/>
<path d="M38.7211 61.7958H44.5656C45.7798 61.7958 46.7628 60.8128 46.7628 59.5985C46.7628 58.3855 45.7798 57.4013 44.5656 57.4013H38.7211C37.5069 57.4013 36.5238 58.3855 36.5238 59.5985C36.5238 60.8128 37.5069 61.7958 38.7211 61.7958Z" fill="white"/>
<path d="M63.715 61.5543C65.887 61.5543 67.9298 60.6434 69.3168 59.0561C70.1156 58.1429 70.0229 56.7547 69.1086 55.9559C68.1953 55.1571 66.8072 55.2509 66.0084 56.1642C65.4556 56.797 64.619 57.1598 63.715 57.1598C62.8109 57.1598 61.9743 56.797 61.4216 56.1642C60.6228 55.2509 59.2346 55.1571 58.3214 55.9559C57.407 56.7547 57.3143 58.1429 58.1131 59.0561C59.5001 60.6434 61.5417 61.5543 63.715 61.5543Z" fill="white"/>
<path d="M13.1023 57.9655C13.1023 71.5347 18.4731 81.2885 29.0657 86.9579C31.8707 88.4583 35.0201 89.6816 38.5803 90.6406C37.952 94.4332 36.0661 98.2098 34.0828 102.176C31.1955 107.952 27.9224 114.498 28.1467 122.288C28.1822 123.501 29.195 124.457 30.407 124.42C31.62 124.386 32.5745 123.374 32.5401 122.161C32.3467 115.475 35.2272 109.715 38.0138 104.142C40.1127 99.9447 42.1131 95.9415 42.8753 91.6294C46.5282 92.3412 50.5669 92.8242 55.0472 93.0862C60.8128 93.4227 66.6206 93.4147 72.385 93.0862C76.8654 92.8242 80.9029 92.3412 84.5547 91.6294C85.3169 95.9415 87.3196 99.9447 89.4184 104.142C92.0219 109.347 94.7136 114.728 94.8944 120.855C94.9265 121.961 94.8715 123.093 94.7365 124.198C94.0121 130.107 90.921 136.24 85.3558 142.839C83.8726 144.597 81.6822 145.605 79.343 145.605H77.7947C83.5774 133.167 81.9031 117.892 81.8207 117.191C81.6811 115.986 80.5904 115.122 79.3865 115.261C78.1803 115.401 77.3163 116.491 77.4559 117.697C77.4754 117.864 79.2584 134.073 72.8703 145.605H65.9123V117.444C65.9123 116.231 64.9281 115.247 63.715 115.247C62.5019 115.247 61.5177 116.231 61.5177 117.444V145.605H54.5597C48.1991 134.117 49.95 117.914 49.9741 117.696C50.1137 116.491 49.2497 115.401 48.0434 115.261C46.8384 115.122 45.7478 115.986 45.6093 117.191C45.528 117.892 43.8526 133.167 49.6353 145.605H48.0869C45.7489 145.605 43.5574 144.597 42.0754 142.839C38.3915 138.472 35.7491 134.23 34.219 130.229C33.7864 129.095 32.5161 128.527 31.382 128.961C30.249 129.394 29.6814 130.664 30.114 131.798C31.8443 136.323 34.6584 140.862 38.7154 145.673C41.0351 148.423 44.4511 150 48.0869 150H79.343C82.98 150 86.396 148.423 88.7146 145.673C91.2724 142.64 93.3575 139.675 94.9814 136.758C102.425 135.362 108.094 132.25 112.276 127.259C117.311 121.25 119.096 113.795 120.823 106.586C121.833 102.369 122.787 98.3849 124.33 94.669C124.794 93.5474 124.263 92.2623 123.142 91.7965C122.02 91.3319 120.735 91.8629 120.271 92.9844C118.595 97.023 117.555 101.364 116.549 105.561C114.941 112.277 113.277 119.221 108.908 124.436C106.013 127.891 102.213 130.283 97.3629 131.688C98.1457 129.625 98.6813 127.582 98.9868 125.541C99.1207 124.648 99.2157 123.748 99.2615 122.845C105.555 119.219 107.198 112.36 109.245 103.812C110.62 98.0724 112.178 91.5665 115.5 85.5721C119.273 78.764 124.765 73.6462 132.293 69.9268C134.129 69.0205 136.418 69.7998 137.322 71.6309C138.23 73.4688 137.452 75.7553 135.618 76.6617C131.188 78.8498 127.691 81.5769 124.925 84.9998C124.162 85.9428 124.308 87.3264 125.252 88.0898C126.196 88.8519 127.58 88.7054 128.342 87.7625C130.701 84.8442 133.717 82.5027 137.565 80.6007C141.519 78.6472 143.216 73.724 141.293 69.7483C141.283 69.7277 141.273 69.706 141.262 69.6842C139.31 65.7326 134.382 64.0354 130.41 65.9557C130.388 65.966 130.368 65.9763 130.346 65.9866C121.989 70.1157 115.876 75.8251 111.655 83.4412C108.044 89.9597 106.412 96.7747 104.971 102.789C103.284 109.831 102.127 114.65 99.004 117.597C98.164 111.82 95.6303 106.738 93.3483 102.176C91.3639 98.2098 89.4779 94.4332 88.8496 90.6406C92.4099 89.6816 95.5593 88.4583 98.3631 86.9579C108.956 81.2885 114.328 71.5336 114.328 57.9643C114.328 52.1942 113.698 46.7388 112.468 41.6531C121.262 27.8526 119.96 13.6127 118.366 6.26907C117.656 2.99377 114.917 0.557327 111.555 0.204849C110.254 0.0686646 108.945 0 107.668 0C96.2528 0 88.9149 5.35927 86.1546 7.81174C79.2561 4.39682 71.5336 2.54173 63.715 2.54173C55.8952 2.54173 48.1728 4.39682 41.2754 7.81174C38.514 5.35927 31.1749 0 19.7605 0C18.4834 0 17.1764 0.0686646 15.8752 0.204849C12.5118 0.557327 9.7744 2.99377 9.06372 6.26907C7.46842 13.6127 6.16837 27.8526 14.962 41.6531C13.7318 46.7388 13.1023 52.1942 13.1023 57.9655ZM21.4108 13.3942C24.9687 13.6757 27.7473 14.7903 29.6368 15.8363C29.3049 16.1453 28.9799 16.4612 28.6572 16.7805C26.2001 19.2135 24.004 21.9074 22.1146 24.8039C21.1189 20.5456 21.1018 16.5642 21.4108 13.3942ZM105.315 24.8039C104.105 22.9465 102.774 21.1819 101.328 19.5122C100.256 18.2739 99.1207 17.0895 97.9294 15.9657C97.8836 15.9233 97.839 15.8787 97.7932 15.8363C99.6826 14.7915 102.461 13.6757 106.018 13.3953C106.327 16.563 106.31 20.5467 105.315 24.8039ZM107.669 4.39453C108.794 4.39453 109.947 4.45518 111.097 4.57535C112.569 4.72984 113.765 5.78499 114.071 7.20177C115.388 13.2626 116.495 24.4812 110.742 35.8315C110.649 35.5705 110.078 34.1457 109.924 33.6811C109.427 32.4497 108.891 31.2469 108.311 30.0728C111.066 22.6204 110.834 15.5239 110.124 10.8044C109.964 9.73663 109.052 8.9447 107.973 8.9344L107.73 8.93326C101.494 8.93326 96.9566 11.0596 94.2535 12.8357C92.9844 11.8595 91.6649 10.944 90.295 10.0937C93.2144 7.8598 99.1219 4.39453 107.669 4.39453ZM93.0119 17.4763C104.812 27.3342 109.933 42.9577 109.933 57.9643C109.933 69.9543 105.471 78.17 96.2906 83.083C87.9238 87.5599 77.9858 88.5544 68.6485 88.8565C68.573 88.8588 58.857 88.8588 58.7814 88.8565C49.4408 88.5521 39.5165 87.5656 31.1394 83.083C21.9589 78.17 17.4969 69.9543 17.4969 57.9643C17.4969 44.0563 21.6694 30.0018 31.683 19.9825C40.0612 11.5997 51.9001 6.93626 63.715 6.93626C74.4392 6.93626 84.9598 10.7494 93.0119 17.4763ZM13.3575 7.20177C13.6654 5.78499 14.8613 4.72984 16.333 4.57535C17.4831 4.45518 18.6356 4.39453 19.7605 4.39453C28.2475 4.39453 34.1835 7.86781 37.1223 10.1006C35.7571 10.9497 34.4421 11.8629 33.1764 12.8357C30.4733 11.0596 25.9346 8.93326 19.6999 8.93326L19.4572 8.9344C18.3781 8.9447 17.466 9.73663 17.3058 10.8044C16.5962 15.5239 16.3639 22.6204 19.1185 30.0728C18.5371 31.2515 17.9981 32.46 17.5003 33.696C17.3218 34.1377 16.7839 35.5614 16.6878 35.8326C10.9348 24.4812 12.0415 13.2626 13.3575 7.20177Z" fill="white"/>
</svg>
