<svg id="Layer_35" enable-background="new 0 0 64 64" height="512" viewBox="0 0 64 64" width="512" xmlns="http://www.w3.org/2000/svg" xmlns:xlink="http://www.w3.org/1999/xlink"><linearGradient id="SVGID_1_" gradientUnits="userSpaceOnUse" x1="32" x2="32" y1="63" y2="1"><stop offset="0" stop-color="#9f2fff"/><stop offset="1" stop-color="#0bb1d3"/></linearGradient><path d="m33 12h9c1.654 0 3 1.346 3 3v8.697l-2.168-3.252-1.664 1.109 4.832 7.249 4.832-7.248-1.664-1.109-2.168 3.251v-8.697c0-2.757-2.243-5-5-5h-9v-4c0-2.757-2.243-5-5-5h-22c-2.757 0-5 2.243-5 5v26c0 2.757 2.243 5 5 5h17v19h-9c-1.654 0-3-1.346-3-3v-8.697l2.168 3.252 1.664-1.109-4.832-7.249-4.832 7.248 1.664 1.109 2.168-3.251v8.697c0 2.757 2.243 5 5 5h9v5h40v-32h-30zm-30 20v-26c0-1.654 1.346-3 3-3h22c1.654 0 3 1.346 3 3v25h-2v-24c0-1.103-.897-2-2-2h-20c-1.103 0-2 .897-2 2v27.816c-1.161-.414-2-1.514-2-2.816zm24-17h-20v-8h20zm-20 2h20v8h-20zm0 18v-8h20v4h-4v4zm18 26v-20h36v20zm36-22h-36v-6h36zm-50-26h-2v-4h2zm4 0h-2v-4h2zm10 6v4h-2v-4zm-6 0h2v4h-2zm-10 10h2v4h-2zm4 0h2v4h-2zm16 8h-2v-2h2zm4 0h-2v-2h2zm4 0h-2v-2h2zm9.567 14.494c.884-.902 1.433-2.134 1.433-3.494 0-2.757-2.243-5-5-5s-5 2.243-5 5c0 1.36.549 2.592 1.433 3.494-2.592 1.027-4.433 3.553-4.433 6.506v1h16v-1c0-2.953-1.841-5.479-4.433-6.506zm-3.567-6.494c1.654 0 3 1.346 3 3s-1.346 3-3 3-3-1.346-3-3 1.346-3 3-3zm-5.899 12c.465-2.279 2.484-4 4.899-4h2c2.415 0 4.435 1.721 4.899 4zm-10.101-14h2v2h-2zm0 4h2v2h-2zm0 4h2v2h-2zm30 6h2v2h-2zm0-4h2v2h-2zm0-4h2v2h-2z" fill="url(#SVGID_1_)"/></svg>