<svg width="60" height="60" viewBox="0 0 60 60" fill="none" xmlns="http://www.w3.org/2000/svg">
<g filter="url(#filter0_d)">
<path d="M39.0332 26.0098C39.0332 30.9988 34.9889 35.0431 30 35.0431C25.0111 35.0431 20.9668 30.9988 20.9668 26.0098C20.9668 21.0209 25.0111 16.9766 30 16.9766C34.9889 16.9766 39.0332 21.0209 39.0332 26.0098V26.0098Z" fill="#80E0DC"/>
<path d="M39.0332 26.0098C39.0332 30.9988 34.989 35.0431 30 35.0431C29.0764 35.0431 28.1848 34.9044 27.3455 34.6467C27.733 34.6974 28.1281 34.7236 28.5297 34.7236C33.5187 34.7236 37.563 30.6793 37.563 25.6904C37.563 21.6252 34.8778 18.1875 31.1844 17.0535C35.6137 17.6336 39.0332 21.4225 39.0332 26.0098V26.0098Z" fill="#00A8B0"/>
<path d="M34.709 30.3864C35.5783 28.3172 35.807 25.9712 35.3285 23.6718C35.1819 22.9661 34.9731 22.2857 34.7049 21.6343C35.1065 21.5502 35.5005 21.4547 35.8859 21.3479C36.3142 21.2292 36.8692 21.0639 37.4026 20.8311C37.2833 20.6611 37.1585 20.4952 37.0276 20.3341C36.5695 20.5226 36.0974 20.6623 35.7245 20.7659C35.3107 20.8807 34.8869 20.9818 34.4536 21.0688C34.2001 20.5383 33.9053 20.0291 33.5693 19.5437C32.9002 18.5758 32.095 17.7412 31.1673 17.0515H31.167C31.0155 17.0318 30.8632 17.0161 30.7094 17.004C30.4854 16.9866 30.2586 16.9773 30.0302 16.977H30.0298C30.029 16.9766 30.0285 16.9766 30.0278 16.9766H29.9722C29.9713 16.9766 29.971 16.9766 29.9701 16.977H29.9698C29.7414 16.9773 29.5146 16.9866 29.2906 17.004C29.1368 17.0161 28.9845 17.0318 28.833 17.0515H28.8325C27.905 17.7412 27.0998 18.5758 26.4305 19.5437C26.0878 20.0392 25.7872 20.5593 25.5307 21.1019C24.6695 20.9323 23.8029 20.6878 22.9716 20.3349C22.841 20.496 22.7162 20.6616 22.5974 20.8315C23.4708 21.2162 24.3794 21.4829 25.2814 21.6682C25.0195 22.3092 24.8157 22.9786 24.6715 23.6718C24.1954 25.9586 24.4194 28.2914 25.2769 30.3527C24.3762 30.5375 23.4694 30.8042 22.5974 31.1881C22.7162 31.3581 22.841 31.5237 22.9715 31.6848C23.8034 31.3319 24.6703 31.087 25.5315 30.9178C25.809 31.4906 26.1377 32.0388 26.5164 32.5553C27.2108 33.5027 28.0067 34.3229 28.8556 34.9714C29.001 34.9896 29.1476 35.0044 29.295 35.0161C29.5174 35.0331 29.7426 35.0422 29.9693 35.0427H29.9698C29.9705 35.0431 29.971 35.0431 29.9718 35.0431H30.0282C30.029 35.0431 30.0294 35.0431 30.0302 35.0427H30.0307C30.2574 35.0424 30.4826 35.0331 30.705 35.0161C30.8524 35.0044 30.999 34.9896 31.1444 34.9714C31.9931 34.3228 32.7892 33.5027 33.4836 32.5553C33.855 32.0486 34.1785 31.5116 34.4528 30.9504C34.8862 31.0378 35.3104 31.139 35.7245 31.2538C36.0974 31.3572 36.5695 31.4971 37.0276 31.6856C37.1585 31.5244 37.2833 31.3586 37.4026 31.1884C36.8694 30.9557 36.3142 30.7905 35.8861 30.6716C35.5017 30.5648 35.1094 30.4698 34.709 30.3864ZM34.7371 23.7951C35.1996 26.0174 34.9655 28.2833 34.1023 30.2693C33.5379 30.1693 32.9587 30.0915 32.3666 30.0359C32.6884 28.106 32.7722 25.9506 32.5925 23.8346C32.5386 23.1977 32.4617 22.579 32.3633 21.984C32.9555 21.9285 33.5347 21.8507 34.0991 21.7507C34.3758 22.4021 34.5894 23.085 34.7371 23.7951V23.7951ZM30 35.0012C29.5581 34.3458 29.1396 33.4132 28.7827 32.2852C28.6136 31.7515 28.4685 31.1811 28.3481 30.583C28.8306 30.5569 29.2943 30.5444 29.7305 30.5383C30.3844 30.5294 31.0251 30.5451 31.6516 30.5859C31.5311 31.1828 31.3861 31.7524 31.2173 32.2852C30.8604 33.4132 30.4419 34.3458 30 35.0012V35.0012ZM29.7221 29.934C29.2548 29.9406 28.7566 29.9542 28.2368 29.9841C27.9166 28.0932 27.8325 25.9715 28.0093 23.8857C28.0637 23.2473 28.141 22.6286 28.2401 22.0356C28.7585 22.0654 29.256 22.0791 29.7221 22.0855C29.845 22.0872 29.9673 22.088 30.089 22.088C30.6558 22.088 31.2129 22.0695 31.7595 22.0324C31.8587 22.6261 31.9363 23.2461 31.9908 23.8857C32.1675 25.9727 32.0834 28.0956 31.7624 29.9873C31.0973 29.9421 30.4166 29.9244 29.7221 29.934V29.934ZM30 17.0168C30.7199 18.0689 31.2898 19.609 31.6504 21.4338C31.0248 21.4744 30.3839 21.4901 29.7305 21.4813C29.2946 21.4752 28.8315 21.4628 28.3492 21.4366C28.7094 19.6102 29.2798 18.0694 30 17.0168V17.0168ZM33.0724 19.8873C33.3588 20.3015 33.6137 20.7337 33.8368 21.1828C33.3221 21.2698 32.7953 21.3378 32.2562 21.3867C31.9887 20.0134 31.6049 18.7869 31.1287 17.7862C31.869 18.3853 32.52 19.0882 33.0724 19.8873V19.8873ZM26.9276 19.8873C27.48 19.0882 28.131 18.3853 28.8713 17.7862C28.394 18.7893 28.0096 20.019 27.7422 21.3963C27.2241 21.356 26.6896 21.2972 26.149 21.2115C26.3754 20.7522 26.6353 20.3103 26.9276 19.8873ZM25.2629 23.7951C25.4083 23.0958 25.6177 22.4232 25.8884 21.7809C26.4818 21.8809 27.0679 21.9482 27.635 21.9941C27.5375 22.5858 27.4611 23.2014 27.4075 23.8346C27.2282 25.9466 27.3112 28.0988 27.6318 30.0259C27.0647 30.0718 26.4783 30.1391 25.8849 30.239C25.032 28.2603 24.8029 26.0061 25.2629 23.7951V23.7951ZM27.0038 32.198C26.6812 31.7576 26.3963 31.2924 26.1511 30.8082C26.6904 30.7224 27.2234 30.6635 27.7402 30.6233C27.8679 31.2722 28.0238 31.8907 28.2066 32.4677C28.3685 32.9786 28.5918 33.6042 28.8757 34.214C28.2018 33.6492 27.5687 32.9685 27.0038 32.198ZM32.9962 32.198C32.4313 32.9685 31.7982 33.6492 31.1243 34.214C31.4082 33.6041 31.6315 32.9786 31.7934 32.4677C31.9754 31.8934 32.1304 31.2783 32.2581 30.633C32.7956 30.6822 33.3212 30.7498 33.8344 30.8364C33.5924 31.3105 33.3128 31.7661 32.9962 32.198Z" fill="#00A8B0"/>
<path d="M39.5538 28.292H20.4462C20.1997 28.292 20 28.0923 20 27.8459V25.1266C20 24.8803 20.1997 24.6806 20.4462 24.6806H39.5538C39.8003 24.6806 40 24.8803 40 25.1266V27.8459C40 28.0923 39.8003 28.292 39.5538 28.292Z" fill="#E7E7E7"/>
<path d="M22.2269 27.0385C22.2269 27.0817 22.162 27.1272 22.0862 27.1272C22.0039 27.1272 21.9476 27.0817 21.9476 27.0385V25.5859C21.9476 25.5338 22.0039 25.4992 22.0862 25.4992C22.1619 25.4992 22.2269 25.5338 22.2269 25.5859V26.2504C22.2659 26.166 22.3633 26.0859 22.4997 26.0859C22.6988 26.0859 22.872 26.285 22.872 26.5254V27.0384C22.872 27.0968 22.8006 27.1272 22.7313 27.1272C22.6663 27.1272 22.5928 27.0968 22.5928 27.0384V26.5254C22.5928 26.4279 22.5061 26.3305 22.4043 26.3305C22.3157 26.3305 22.2269 26.4041 22.2269 26.5254V27.0385Z" fill="#5A5A5A"/>
<path d="M23.4869 26.7765C23.4869 26.8609 23.5173 26.8913 23.6082 26.8913H23.6926C23.7727 26.8913 23.8116 26.9497 23.8116 27.0081C23.8116 27.0687 23.7727 27.1272 23.6926 27.1272H23.6082C23.3484 27.1272 23.2077 27.0211 23.2077 26.7765V25.7266C23.2077 25.6747 23.2814 25.6399 23.3463 25.6399C23.4177 25.6399 23.4869 25.6747 23.4869 25.7266V26.0989H23.7425C23.788 26.0989 23.8139 26.1509 23.8139 26.2007C23.8139 26.2525 23.788 26.3023 23.7425 26.3023H23.4869V26.7765Z" fill="#5A5A5A"/>
<path d="M24.3681 26.7765C24.3681 26.8609 24.3983 26.8913 24.4894 26.8913H24.5738C24.6539 26.8913 24.6928 26.9497 24.6928 27.0081C24.6928 27.0687 24.6539 27.1272 24.5738 27.1272H24.4894C24.2296 27.1272 24.0889 27.0211 24.0889 26.7765V25.7266C24.0889 25.6747 24.1624 25.6399 24.2274 25.6399C24.2988 25.6399 24.3681 25.6747 24.3681 25.7266V26.0989H24.6235C24.669 26.0989 24.6949 26.1509 24.6949 26.2007C24.6949 26.2525 24.669 26.3023 24.6235 26.3023H24.3681V26.7765Z" fill="#5A5A5A"/>
<path d="M25.2364 26.1855V26.2504C25.2861 26.166 25.39 26.0859 25.5286 26.0859C25.7449 26.0859 25.916 26.285 25.916 26.5254V26.7028C25.916 26.9344 25.7385 27.1467 25.5373 27.1467C25.4073 27.1467 25.2948 27.0643 25.2536 26.9756V27.5169C25.2536 27.5623 25.1886 27.6055 25.1108 27.6055C25.0307 27.6055 24.9744 27.5623 24.9744 27.5169V26.1854C24.9744 26.1335 25.0328 26.0989 25.1064 26.0989C25.1822 26.0989 25.2364 26.1335 25.2364 26.1855V26.1855ZM25.6367 26.5254C25.6367 26.4279 25.5481 26.3305 25.4398 26.3305C25.3488 26.3305 25.2536 26.4041 25.2536 26.5254V26.7419C25.2536 26.7874 25.3337 26.9021 25.444 26.9021C25.5458 26.9021 25.6367 26.8025 25.6367 26.7028V26.5254Z" fill="#5A5A5A"/>
<path d="M26.7107 26.8414C26.7107 26.6509 26.1977 26.77 26.1977 26.4085C26.1977 26.2548 26.295 26.0859 26.5851 26.0859C26.7604 26.0859 26.9293 26.1465 26.9293 26.2266C26.9293 26.2657 26.8925 26.3609 26.8275 26.3609C26.7757 26.3609 26.7085 26.2982 26.5895 26.2982C26.4812 26.2982 26.438 26.3522 26.438 26.3955C26.438 26.5536 26.9576 26.4453 26.9576 26.8307C26.9576 27.0233 26.8146 27.1467 26.5591 27.1467C26.3383 27.1467 26.1673 27.0558 26.1673 26.9605C26.1673 26.9151 26.2064 26.8371 26.2604 26.8371C26.3232 26.8371 26.3708 26.9346 26.5527 26.9346C26.6805 26.9344 26.7107 26.8847 26.7107 26.8414V26.8414Z" fill="#5A5A5A"/>
<path d="M27.5312 26.3609C27.5312 26.4387 27.4641 26.5081 27.3861 26.5081C27.3018 26.5081 27.2389 26.4388 27.2389 26.3609C27.2389 26.2808 27.3018 26.2136 27.3861 26.2136C27.4641 26.2136 27.5312 26.2808 27.5312 26.3609ZM27.5312 26.993C27.5312 27.0709 27.4641 27.1401 27.3861 27.1401C27.3018 27.1401 27.2389 27.0709 27.2389 26.993C27.2389 26.9129 27.3018 26.8458 27.3861 26.8458C27.4641 26.8458 27.5312 26.9129 27.5312 26.993Z" fill="#5A5A5A"/>
<path d="M28.7674 25.5555C28.7674 25.5685 28.7653 25.5815 28.7587 25.5944L27.9816 27.1662C27.9663 27.1964 27.9318 27.2138 27.897 27.2138C27.8343 27.2138 27.7933 27.1641 27.7933 27.1186C27.7933 27.1055 27.7975 27.0925 27.804 27.0817L28.5812 25.5036C28.5963 25.4733 28.6267 25.4582 28.6591 25.4582C28.7111 25.4582 28.7674 25.4971 28.7674 25.5555V25.5555Z" fill="#5A5A5A"/>
<path d="M29.4213 25.5555C29.4213 25.5685 29.4191 25.5815 29.4127 25.5944L28.6354 27.1662C28.6203 27.1964 28.5857 27.2138 28.5511 27.2138C28.4883 27.2138 28.4471 27.1641 28.4471 27.1186C28.4471 27.1055 28.4514 27.0925 28.458 27.0817L29.2351 25.5036C29.2504 25.4733 29.2806 25.4582 29.3131 25.4582C29.365 25.4582 29.4213 25.4971 29.4213 25.5555V25.5555Z" fill="#5A5A5A"/>
<path d="M30.6727 27.1012C30.6575 27.138 30.6099 27.151 30.5623 27.151C30.5081 27.151 30.4605 27.1337 30.4475 27.1012L30.2807 26.6293L30.1162 27.0991C30.1033 27.1337 30.0514 27.151 29.9972 27.151C29.9518 27.151 29.9041 27.138 29.8889 27.0991L29.5556 26.2438C29.5469 26.2266 29.5448 26.2136 29.5448 26.2028C29.5448 26.1357 29.653 26.088 29.7267 26.088C29.7635 26.088 29.7958 26.1031 29.8068 26.1335L30.0232 26.7483L30.1855 26.2136C30.2008 26.1637 30.2375 26.1573 30.2807 26.1573C30.3219 26.1573 30.3608 26.1637 30.3761 26.2136L30.5363 26.7504L30.7548 26.1335C30.7657 26.1053 30.796 26.088 30.8351 26.088C30.9042 26.088 31.0147 26.1357 31.0147 26.2049C31.0147 26.2179 31.0125 26.233 31.0061 26.2438L30.6727 27.1012Z" fill="#5A5A5A"/>
<path d="M32.303 27.1012C32.2877 27.138 32.2401 27.151 32.1925 27.151C32.1383 27.151 32.0909 27.1337 32.0778 27.1012L31.9111 26.6293L31.7465 27.0991C31.7335 27.1337 31.6816 27.151 31.6275 27.151C31.582 27.151 31.5344 27.138 31.5193 27.0991L31.1859 26.2438C31.1772 26.2266 31.175 26.2136 31.175 26.2028C31.175 26.1357 31.2832 26.088 31.3568 26.088C31.3937 26.088 31.4261 26.1031 31.4369 26.1335L31.6534 26.7483L31.8158 26.2136C31.831 26.1637 31.8678 26.1573 31.911 26.1573C31.9522 26.1573 31.9911 26.1637 32.0062 26.2136L32.1666 26.7504L32.3852 26.1335C32.3959 26.1053 32.4263 26.088 32.4652 26.088C32.5345 26.088 32.6449 26.1357 32.6449 26.2049C32.6449 26.2179 32.6428 26.233 32.6362 26.2438L32.303 27.1012Z" fill="#5A5A5A"/>
<path d="M33.9332 27.1012C33.9181 27.138 33.8705 27.151 33.8229 27.151C33.7687 27.151 33.7211 27.1337 33.7082 27.1012L33.5414 26.6293L33.3769 27.0991C33.3639 27.1337 33.3119 27.151 33.2577 27.151C33.2122 27.151 33.1646 27.138 33.1495 27.0991L32.8161 26.2438C32.8074 26.2266 32.8053 26.2136 32.8053 26.2028C32.8053 26.1357 32.9136 26.088 32.9872 26.088C33.024 26.088 33.0565 26.1031 33.0673 26.1335L33.2838 26.7483L33.4462 26.2136C33.4613 26.1637 33.498 26.1573 33.5414 26.1573C33.5826 26.1573 33.6215 26.1637 33.6366 26.2136L33.7968 26.7504L34.0155 26.1335C34.0263 26.1053 34.0567 26.088 34.0956 26.088C34.1649 26.088 34.2753 26.1357 34.2753 26.2049C34.2753 26.2179 34.273 26.233 34.2666 26.2438L33.9332 27.1012Z" fill="#5A5A5A"/>
<path d="M39.5539 28.3059H36.0424V24.6401H39.5539C39.8003 24.6401 40 24.8399 40 25.0863V27.8597C40 28.1062 39.8003 28.3059 39.5539 28.3059Z" fill="#C9F0FF"/>
<path d="M38.1567 25.6329L38.3376 25.9992C38.3597 26.0438 38.4023 26.0748 38.4514 26.0819L38.8559 26.1407C38.9798 26.1587 39.0294 26.3111 38.9397 26.3986L38.647 26.6839C38.6113 26.7185 38.5951 26.7686 38.6035 26.8177L38.6725 27.2204C38.6937 27.344 38.5641 27.4381 38.4532 27.3798L38.0914 27.1896C38.0473 27.1665 37.9947 27.1665 37.9507 27.1896L37.589 27.3798C37.4782 27.4381 37.3485 27.344 37.3697 27.2204L37.4388 26.8177C37.4472 26.7686 37.4309 26.7185 37.3953 26.6839L37.1027 26.3986C37.0129 26.3111 37.0624 26.1587 37.1864 26.1407L37.5908 26.0819C37.6401 26.0748 37.6826 26.0438 37.7046 25.9992L37.8854 25.6329C37.941 25.5204 38.1012 25.5204 38.1567 25.6329Z" fill="#FFD86E"/>
<path d="M39.5538 28.292H39.0095V24.6806H39.5538C39.8002 24.6806 40 24.8803 40 25.1266V27.8459C40 28.0923 39.8002 28.292 39.5538 28.292Z" fill="#9AE7FD"/>
</g>
<defs>
<filter id="filter0_d" x="0" y="0" width="60" height="60" filterUnits="userSpaceOnUse" color-interpolation-filters="sRGB">
<feFlood flood-opacity="0" result="BackgroundImageFix"/>
<feColorMatrix in="SourceAlpha" type="matrix" values="0 0 0 0 0 0 0 0 0 0 0 0 0 0 0 0 0 0 127 0"/>
<feOffset dy="4"/>
<feGaussianBlur stdDeviation="10"/>
<feColorMatrix type="matrix" values="0 0 0 0 0.501961 0 0 0 0 0.878431 0 0 0 0 0.862745 0 0 0 1 0"/>
<feBlend mode="normal" in2="BackgroundImageFix" result="effect1_dropShadow"/>
<feBlend mode="normal" in="SourceGraphic" in2="effect1_dropShadow" result="shape"/>
</filter>
</defs>
</svg>
