<svg width="62" height="62" viewBox="0 0 62 62" fill="none" xmlns="http://www.w3.org/2000/svg">
<g filter="url(#filter0_d)">
<path d="M26.8673 22.0641V24.0446C26.8673 24.5761 26.4364 25.007 25.9048 25.007H23.9244C23.3928 25.007 22.962 24.5761 22.962 24.0446V22.0641C22.962 21.5326 23.3928 21.1017 23.9244 21.1017H25.9048C26.4364 21.1017 26.8673 21.5326 26.8673 22.0641Z" fill="#A3DEFE"/>
<path d="M24.8947 21.1017H23.9244C23.4677 21.1017 23.0862 21.4201 22.9875 21.8469L26.1222 24.9815C26.5489 24.8829 26.8673 24.5013 26.8673 24.0446V23.0742L24.8947 21.1017Z" fill="#7ACEFA"/>
<path d="M34.9959 23.0422C32.5561 22.3089 33.4372 19.6928 32.3111 18.5665C31.7448 18.0004 30.827 18.0004 30.2607 18.5665C29.6945 19.1329 29.6945 20.0508 30.2607 20.617C32.3443 22.7006 31.5413 24.2413 29.8912 25.8912C28.2413 27.5413 27.5852 28.1274 24.1181 24.6604C23.176 23.7184 21.6486 23.7184 20.7067 24.6604C19.7645 25.6025 19.7645 27.1299 20.7067 28.072C22.5803 29.9457 26.3089 28.5561 27.0422 30.9961L34.9959 23.0422Z" fill="#E1B89A"/>
<path d="M34.9959 23.0422C32.5561 22.3089 33.4372 19.6928 32.3111 18.5665C31.7448 18.0004 30.827 18.0004 30.2607 18.5665C29.6945 19.1329 29.6945 20.0508 30.2607 20.617C32.3443 22.7006 31.5413 24.2413 29.8912 25.8912C28.2413 27.5413 27.5852 28.1274 24.1181 24.6604C23.176 23.7184 21.6486 23.7184 20.7067 24.6604C19.7645 25.6025 19.7645 27.1299 20.7067 28.072C22.5803 29.9457 26.3089 28.5561 27.0422 30.9961L34.9959 23.0422Z" fill="#E1B89A"/>
<path d="M22.8128 23.9878C22.0697 23.8635 21.2799 24.0872 20.7067 24.6604C19.7645 25.6025 19.7645 27.1299 20.7067 28.072C21.6505 29.0158 23.0649 29.1317 24.33 29.326C22.7985 27.7966 22.2475 25.7799 22.8128 23.9878Z" fill="#D2996F"/>
<path d="M29.1303 17.6565C29.1303 16.7417 28.4658 16 27.6459 16C26.8261 16 26.1616 16.7417 26.1616 17.6565C26.1616 18.5714 26.8261 19.313 27.6459 19.313C28.4658 19.313 29.1303 18.5714 29.1303 17.6565Z" fill="#E1B89A"/>
<path d="M35.4105 21.8268L25.8268 31.4105C25.5054 31.7319 24.9845 31.7319 24.6631 31.4105L24.4293 31.1767C24.108 30.8554 24.108 30.3344 24.4293 30.0132L34.0132 20.4293C34.3344 20.108 34.8554 20.108 35.1767 20.4293L35.4105 20.6631C35.7319 20.9845 35.7319 21.5055 35.4105 21.8268Z" fill="#FCF2D0"/>
<path d="M35.2848 21.9525L25.9525 31.2848L35.6356 37.7823C36.145 38.124 36.825 38.0577 37.2587 37.624L41.624 33.2587C42.0577 32.825 42.124 32.145 41.7823 31.6356L35.2848 21.9525Z" fill="#EDA1AB"/>
<path d="M35.2848 21.9525L25.9525 31.2848L35.6356 37.7823C36.1329 38.116 36.7922 38.0596 37.2268 37.6532C34.3401 35.2654 31.5593 32.2195 31.1512 27.8347L35.9871 22.999L35.2848 21.9525Z" fill="#E26E7E"/>
<path d="M40.108 29.1405L39.7419 28.595L32.595 35.742L33.1405 36.108L40.108 29.1405Z" fill="#E26E7E"/>
<path d="M40.9372 30.3761L40.5711 29.8306L33.8306 36.5711L34.3761 36.9372L40.9372 30.3761Z" fill="#E26E7E"/>
<path d="M31.3595 34.913L31.905 35.279L39.2788 27.905L38.9129 27.3595L31.3595 34.913Z" fill="#E26E7E"/>
<path d="M31.9962 31.2049C31.5836 30.7923 30.8293 30.8778 30.3112 31.3959C29.7932 31.9139 29.7076 32.6684 30.1201 33.0809C30.5327 33.4935 31.2872 33.4079 31.8052 32.8899C32.3233 32.3718 32.4087 31.6175 31.9962 31.2049Z" fill="white"/>
<path d="M35.2051 27.9965C35.6177 28.4089 36.372 28.3235 36.8901 27.8053C37.4081 27.2874 37.4937 26.5329 37.0811 26.1203C36.6686 25.7077 35.9141 25.7933 35.3961 26.3113C34.878 26.8295 34.7925 27.5839 35.2051 27.9965Z" fill="white"/>
<path d="M30.3331 31.4263C30.2507 31.4263 30.1681 31.3949 30.1054 31.332L29.7027 30.9293C29.5768 30.8034 29.5768 30.5995 29.7027 30.4736C29.8286 30.3477 30.0325 30.3477 30.1584 30.4736L30.5611 30.8763C30.6868 31.0021 30.6868 31.2061 30.5611 31.332C30.4981 31.3947 30.4157 31.4263 30.3331 31.4263Z" fill="#4E5660"/>
<path d="M33.7827 28.2704C33.3155 27.803 32.5979 27.7627 32.1803 28.1805C31.7625 28.5981 31.8028 29.3156 32.2703 29.7829C32.7377 30.2503 33.4551 30.2906 33.8729 29.873C34.2905 29.4553 34.2502 28.7377 33.7827 28.2704Z" fill="#4E5660"/>
<path d="M35.104 26.6554C35.0216 26.6554 34.939 26.624 34.8761 26.5611L34.4734 26.1584C34.3477 26.0325 34.3477 25.8286 34.4734 25.7027C34.5995 25.5768 34.8034 25.5768 34.9293 25.7027L35.332 26.1054C35.4577 26.2313 35.4577 26.4352 35.332 26.5611C35.269 26.624 35.1865 26.6554 35.104 26.6554Z" fill="#4E5660"/>
<path d="M30.0209 24.4215L24.4293 30.0132C24.108 30.3344 24.108 30.8554 24.4293 31.1767L24.6633 31.4107C24.9845 31.7319 25.5054 31.7319 25.8268 31.4107L31.1522 26.0851C30.4803 25.909 30.0167 25.0777 30.0209 24.4215Z" fill="#F6E3A3"/>
</g>
<defs>
<filter id="filter0_d" x="0" y="0" width="62" height="62" filterUnits="userSpaceOnUse" color-interpolation-filters="sRGB">
<feFlood flood-opacity="0" result="BackgroundImageFix"/>
<feColorMatrix in="SourceAlpha" type="matrix" values="0 0 0 0 0 0 0 0 0 0 0 0 0 0 0 0 0 0 127 0"/>
<feOffset dy="4"/>
<feGaussianBlur stdDeviation="10"/>
<feColorMatrix type="matrix" values="0 0 0 0 0.929412 0 0 0 0 0.631373 0 0 0 0 0.670588 0 0 0 1 0"/>
<feBlend mode="normal" in2="BackgroundImageFix" result="effect1_dropShadow"/>
<feBlend mode="normal" in="SourceGraphic" in2="effect1_dropShadow" result="shape"/>
</filter>
</defs>
</svg>
