<svg width="25" height="25" viewBox="0 0 25 25" fill="none" xmlns="http://www.w3.org/2000/svg">
<path d="M24.5108 11.0827C24.5568 10.9718 24.5568 10.8468 24.5108 10.7354C24.4877 10.6795 24.454 10.6291 24.4122 10.5868L18.9581 5.13317C18.7804 4.95545 18.4931 4.95545 18.3154 5.13317C18.1377 5.3109 18.1377 5.59817 18.3154 5.7759L22.994 10.4545H13.1822C12.9308 10.4545 12.7277 10.6577 12.7277 10.9091C12.7277 11.1604 12.9308 11.3636 13.1822 11.3636H22.994L18.3154 16.0423C18.1377 16.22 18.1377 16.5073 18.3154 16.685C18.404 16.7736 18.5204 16.8182 18.6368 16.8182C18.7531 16.8182 18.8695 16.7736 18.9581 16.685L24.4122 11.2309C24.454 11.1891 24.4877 11.1386 24.5108 11.0827Z" fill="white"/>
<path d="M16.364 13.1818C16.1127 13.1818 15.9095 13.385 15.9095 13.6364V20.9091H11.364V3.63636C11.364 3.43818 11.2359 3.26318 11.0472 3.20318L3.83723 0.909091H15.9095V8.18182C15.9095 8.43318 16.1127 8.63636 16.364 8.63636C16.6154 8.63636 16.8186 8.43318 16.8186 8.18182V0.454545C16.8186 0.203182 16.6154 0 16.364 0H0.909501C0.894956 0 0.882229 0.00681818 0.868138 0.00818182C0.842683 0.0104545 0.820411 0.0163636 0.79632 0.0227273C0.753592 0.0340909 0.715411 0.0495455 0.678592 0.0718182C0.666774 0.0790909 0.652683 0.0790909 0.64132 0.0872727C0.627229 0.0977273 0.61632 0.110909 0.603592 0.122273C0.595865 0.129545 0.587683 0.135909 0.580411 0.143636C0.545865 0.180909 0.517683 0.222273 0.496774 0.267727C0.492683 0.276818 0.490411 0.285909 0.486774 0.295C0.467683 0.345909 0.454956 0.399091 0.454956 0.454545V21.3636C0.454956 21.4205 0.468138 21.4741 0.487683 21.525C0.494047 21.5418 0.503592 21.5559 0.511774 21.5718C0.528592 21.6041 0.547683 21.6336 0.571774 21.6609C0.584956 21.6755 0.598138 21.6886 0.612683 21.7018C0.639047 21.725 0.668592 21.7441 0.700411 21.7609C0.717229 21.77 0.732683 21.7795 0.750865 21.7864C0.758592 21.7891 0.764501 21.7945 0.772229 21.7973L10.7722 24.9791C10.8168 24.9927 10.8631 25 10.9095 25C11.005 25 11.099 24.97 11.1777 24.9127C11.295 24.8273 11.364 24.6909 11.364 24.5455V21.8182H16.364C16.6154 21.8182 16.8186 21.615 16.8186 21.3636V13.6364C16.8186 13.385 16.615 13.1818 16.364 13.1818ZM10.455 23.9241L1.36405 21.0314V1.07591L10.455 3.96864V23.9241Z" fill="white"/>
</svg>
