<svg width="22" height="22" viewBox="0 0 22 22" fill="none" xmlns="http://www.w3.org/2000/svg">
<g clip-path="url(#clip0)">
<path d="M11 4.44298C6.79668 4.44298 2.98488 6.74266 0.172154 10.478C-0.0573643 10.784 -0.0573643 11.2115 0.172154 11.5175C2.98488 15.2573 6.79668 17.557 11 17.557C15.2033 17.557 19.0152 15.2573 21.8279 11.522C22.0574 11.216 22.0574 10.7885 21.8279 10.4825C19.0152 6.74266 15.2033 4.44298 11 4.44298ZM11.3015 15.6174C8.51132 15.7929 6.20713 13.4932 6.38265 10.6985C6.52666 8.39429 8.39431 6.52664 10.6985 6.38263C13.4887 6.20712 15.7929 8.5068 15.6174 11.3015C15.4689 13.6012 13.6012 15.4689 11.3015 15.6174ZM11.162 13.4842C9.65891 13.5787 8.41681 12.3411 8.51582 10.838C8.59232 9.59589 9.6004 8.59231 10.8425 8.5113C12.3456 8.41679 13.5877 9.65439 13.4887 11.1575C13.4077 12.4041 12.3996 13.4077 11.162 13.4842Z" fill="white"/>
</g>
<defs>
<clipPath id="clip0">
<rect width="22" height="22" fill="white"/>
</clipPath>
</defs>
</svg>
