<svg width="62" height="62" viewBox="0 0 62 62" fill="none" xmlns="http://www.w3.org/2000/svg">
<g filter="url(#filter0_d)">
<path d="M34.3604 25.2018C34.3604 24.6619 33.7328 24.3607 33.3117 24.6996C32.0711 25.6983 32.0355 26.3555 31.0002 26.3555C29.9645 26.3555 29.9404 25.7071 28.6888 24.6996C28.2682 24.3612 27.6401 24.6611 27.6401 25.2018C27.6401 27.3312 26.1238 27.7421 26.1238 30.2085C26.1238 30.4164 26.2241 30.6116 26.3932 30.7326C26.4162 30.7491 26.4864 30.7993 26.4953 30.9874C26.6342 33.8807 27.9993 35.1086 26.9132 36.2304C26.6072 36.5465 26.7013 37.0706 27.0986 37.2604C28.0832 37.7304 29.5053 38 31.0002 38C32.4962 38 33.9184 37.7303 34.9021 37.2602C35.2989 37.0707 35.3934 36.5466 35.0873 36.2304C34.0017 35.1091 35.3663 33.8792 35.5052 30.9871C35.5141 30.7993 35.5843 30.7491 35.6073 30.7326C35.7764 30.6116 35.8767 30.4164 35.8767 30.2085C35.8767 27.7461 34.3604 27.3271 34.3604 25.2018Z" fill="#F7F7F7"/>
<path d="M34.3604 25.2018C34.3604 24.6619 33.7328 24.3607 33.3118 24.6996C32.0712 25.6982 32.0355 26.3554 31.0004 26.3555V38C32.4963 38 33.9185 37.7303 34.9021 37.2602C35.2989 37.0707 35.3935 36.5466 35.0873 36.2304C34.0017 35.1091 35.3663 33.8792 35.5052 30.9871C35.5141 30.7993 35.5843 30.7491 35.6073 30.7326C35.7764 30.6116 35.8768 30.4164 35.8768 30.2085C35.8767 27.7461 34.3604 27.3271 34.3604 25.2018Z" fill="#E0E0E0"/>
<path d="M37.2824 21.567C37.1193 18.0259 34.5147 16 31.0003 16C27.4853 16 24.8812 18.0264 24.7181 21.5671C24.5206 25.8639 21.5465 27.7991 23.3867 31.8741C23.6599 32.4791 25.4677 32.8352 25.3192 31.3465C25.2628 30.7794 26.1129 30.5311 26.392 30.7318C26.8175 31.0379 27.4128 30.733 27.4128 30.2085C27.4128 28.1877 28.9292 27.7551 28.9292 25.2018C28.9292 25.0073 28.8413 24.8231 28.6901 24.7007C28.4804 24.531 28.2266 24.3406 27.9354 24.1344C28.1296 24.0862 28.3315 24.0411 28.5353 24.0003C29.0393 23.8995 29.2276 23.2764 28.8652 22.9131C28.6164 22.6637 28.4678 22.2411 28.4678 21.7828C28.4678 21.1629 28.7982 20.4697 29.2403 20.4697C29.6825 20.4697 30.0129 21.1629 30.0129 21.7828C30.0129 22.0784 29.9517 22.3584 29.8384 22.5905C29.2934 22.9539 29.5794 23.8138 30.2378 23.7704C30.7389 23.7374 31.2264 23.7351 31.7628 23.7704C32.4211 23.8135 32.7072 22.9539 32.1622 22.5905C32.0489 22.3584 31.9878 22.0784 31.9878 21.7828C31.9878 21.1629 32.3181 20.4697 32.7603 20.4697C33.2024 20.4697 33.5328 21.1629 33.5328 21.7828C33.5328 22.2411 33.3843 22.6637 33.1354 22.9131C32.7724 23.2769 32.9621 23.8996 33.4653 24.0003C33.669 24.0411 33.8707 24.0862 34.0652 24.1344C33.7743 24.3404 33.5203 24.531 33.3105 24.7007C33.1593 24.8231 33.0714 25.0072 33.0714 25.2018C33.0714 27.7659 34.5878 28.1785 34.5878 30.2085C34.5878 30.7325 35.1828 31.038 35.6086 30.7318C35.8882 30.5308 36.7378 30.7795 36.6814 31.3465C36.5328 32.8378 38.3428 32.4744 38.6139 31.8741C40.4546 27.7977 37.4799 25.8657 37.2824 21.567Z" fill="#294A4A"/>
<path d="M37.2824 21.567C37.1193 18.026 34.5147 16 31.0004 16V23.7449C31.2477 23.7449 31.4992 23.753 31.7627 23.7704C32.421 23.8135 32.7072 22.9539 32.1622 22.5905C32.0488 22.3584 31.9877 22.0784 31.9877 21.7828C31.9877 21.1629 32.318 20.4697 32.7602 20.4697C33.2023 20.4697 33.5327 21.1629 33.5327 21.7828C33.5327 22.2411 33.3842 22.6637 33.1353 22.9131C32.7724 23.2769 32.962 23.8996 33.4652 24.0003C33.6689 24.0411 33.8706 24.0862 34.0651 24.1344C33.7742 24.3404 33.5202 24.531 33.3104 24.7007C33.1592 24.8231 33.0713 25.0072 33.0713 25.2018C33.0713 27.7659 34.5877 28.1785 34.5877 30.2085C34.5877 30.7325 35.1827 31.038 35.6085 30.7318C35.8881 30.5308 36.7377 30.7795 36.6813 31.3465C36.5327 32.8378 38.3427 32.4744 38.6139 31.8741C40.4546 27.7977 37.4799 25.8657 37.2824 21.567Z" fill="#1C2323"/>
<path d="M32.7602 19.1806C32.0065 19.1806 31.3595 19.6667 31.0002 20.4093C30.641 19.6667 29.994 19.1806 29.2402 19.1806C28.1181 19.1806 27.1786 20.3023 27.1786 21.7827C27.1786 22.5867 27.4607 23.3305 27.9525 23.8235C28.1042 23.9756 28.3224 24.0427 28.5349 24.0004C29.1318 23.8825 29.629 23.8106 30.3159 23.7652C30.514 23.7522 30.6951 23.6486 30.8067 23.4844C30.8788 23.3783 30.9432 23.2651 31.0003 23.1466C31.0574 23.2651 31.1218 23.3783 31.1939 23.4844C31.3055 23.6486 31.4865 23.7522 31.6846 23.7652C32.3757 23.8108 32.8601 23.8826 33.4657 24.0004C33.678 24.0427 33.8963 23.9756 34.048 23.8235C34.5398 23.3305 34.8219 22.5867 34.8219 21.7827C34.8218 20.2912 33.8744 19.1806 32.7602 19.1806Z" fill="#F7F7F7"/>
<path d="M32.7602 19.1806C32.0066 19.1806 31.3596 19.6666 31.0004 20.409V23.1469C31.0574 23.2653 31.1218 23.3784 31.1938 23.4844C31.3054 23.6486 31.4865 23.7522 31.6846 23.7652C32.3757 23.8108 32.86 23.8825 33.4656 24.0004C33.678 24.0427 33.8963 23.9756 34.048 23.8235C34.5398 23.3305 34.8219 22.5867 34.8219 21.7827C34.8218 20.2912 33.8744 19.1806 32.7602 19.1806Z" fill="#E0E0E0"/>
<path d="M27.7829 30.926C27.7147 29.4915 26.1976 28.9881 25.0028 29.6776C24.4904 29.9732 24.159 30.429 24.0591 30.9506C23.5179 30.7468 22.586 30.4753 21.8439 31.2175C21.105 31.9564 21.362 32.8614 21.5766 33.4325C20.3055 33.6739 19.6621 35.2502 20.1794 36.2987C20.4337 36.8142 20.9339 37.1269 21.5519 37.1566C23.4555 37.2484 24.6647 37.9991 25.906 37.9991C26.5904 37.9991 27.2349 37.758 27.8394 37.127C29.577 35.3324 27.9157 33.6939 27.7829 30.926Z" fill="#FFD664"/>
<path d="M40.4239 33.4325C40.6385 32.8614 40.8955 31.9564 40.1566 31.2175C39.4145 30.4754 38.4826 30.7468 37.9414 30.9506C37.8416 30.4289 37.5101 29.9732 36.9977 29.6776C35.8012 28.9872 34.2856 29.4929 34.2176 30.9257C34.0835 33.7188 32.3994 35.3435 34.204 37.1705C34.8284 37.7951 35.4557 37.9991 36.0947 37.9991C37.3361 37.9991 38.5449 37.2484 40.4486 37.1567H40.4486C41.0665 37.1269 41.5668 36.8142 41.8211 36.2987C42.3357 35.2557 41.7003 33.6748 40.4239 33.4325Z" fill="#FF9842"/>
<path d="M34.3773 22.8837C32.1268 22.325 29.9507 22.3059 27.6236 22.8836C26.553 23.1486 26.2906 24.5504 27.1904 25.1864C28.0372 25.7857 28.2737 26.0338 28.6779 26.4658C29.2201 27.0453 29.7808 27.6445 31.0003 27.6445C32.2197 27.6445 32.7804 27.0453 33.3226 26.4658C33.7169 26.0443 33.9554 25.7913 34.8101 25.1864C35.7099 24.5499 35.4473 23.1486 34.3773 22.8837Z" fill="#FFD664"/>
<path d="M34.3773 22.8837C33.2424 22.6019 32.1264 22.4576 31.0004 22.4577V27.6445C32.2197 27.6445 32.7804 27.0453 33.3226 26.4658C33.7169 26.0443 33.9554 25.7913 34.8101 25.1864C35.7099 24.5499 35.4473 23.1486 34.3773 22.8837Z" fill="#FF9842"/>
<path d="M32.8546 21.9535C33.2282 21.9535 33.5311 21.6506 33.5311 21.277C33.5311 20.9033 33.2282 20.6004 32.8546 20.6004C32.4809 20.6004 32.178 20.9033 32.178 21.277C32.178 21.6506 32.4809 21.9535 32.8546 21.9535Z" fill="#1C2323"/>
<path d="M29.1455 21.9535C29.5191 21.9535 29.822 21.6506 29.822 21.277C29.822 20.9033 29.5191 20.6004 29.1455 20.6004C28.7718 20.6004 28.4689 20.9033 28.4689 21.277C28.4689 21.6506 28.7718 21.9535 29.1455 21.9535Z" fill="#294A4A"/>
</g>
<defs>
<filter id="filter0_d" x="6.10352e-05" y="0" width="61.9999" height="62" filterUnits="userSpaceOnUse" color-interpolation-filters="sRGB">
<feFlood flood-opacity="0" result="BackgroundImageFix"/>
<feColorMatrix in="SourceAlpha" type="matrix" values="0 0 0 0 0 0 0 0 0 0 0 0 0 0 0 0 0 0 127 0"/>
<feOffset dy="4"/>
<feGaussianBlur stdDeviation="10"/>
<feColorMatrix type="matrix" values="0 0 0 0 1 0 0 0 0 0.596078 0 0 0 0 0.258824 0 0 0 1 0"/>
<feBlend mode="normal" in2="BackgroundImageFix" result="effect1_dropShadow"/>
<feBlend mode="normal" in="SourceGraphic" in2="effect1_dropShadow" result="shape"/>
</filter>
</defs>
</svg>
