<?xml version="1.0"?>
<svg xmlns="http://www.w3.org/2000/svg" xmlns:xlink="http://www.w3.org/1999/xlink" id="Gradient" viewBox="0 0 512 512" width="512" height="512"><defs><linearGradient id="linear-gradient" x1="256" y1="480" x2="256" y2="32" gradientUnits="userSpaceOnUse"><stop offset="0" stop-color="#12c2e9"/><stop offset="0.5" stop-color="#c471ed"/><stop offset="1" stop-color="#f64f59"/></linearGradient></defs><path d="M168.025,232.892a16,16,0,0,1,31.95-1.784h0a16,16,0,0,1-15.084,16.866q-.453.025-.9.025A16.021,16.021,0,0,1,168.025,232.892ZM328,248a16,16,0,1,0-16-16A16.019,16.019,0,0,0,328,248Zm-35.1,65.68A8,8,0,0,0,281.68,315.1C275.669,322.841,269,328,256,328s-19.669-5.159-25.68-12.9a8,8,0,1,0-12.64,9.808c6.9,8.891,17.488,19.1,38.32,19.1s31.421-10.2,38.32-19.1A8,8,0,0,0,292.9,313.68ZM152,304h16a8,8,0,0,0,0-16H152a8,8,0,0,0,0,16Zm192,0h16a8,8,0,0,0,0-16H344a8,8,0,0,0,0,16Zm128-24c0,26.468-17.944,48-40,48a34.07,34.07,0,0,1-4.188-.284c-7.141,36.648-23.255,69.834-47.092,96.123C347.883,460.055,303.59,480,256,480s-91.883-19.945-124.72-56.161c-23.837-26.289-39.951-59.475-47.092-96.123A34.07,34.07,0,0,1,80,328c-22.056,0-40-21.532-40-48,0-15.67,6.291-29.608,16-38.374V232C56,121.72,145.72,32,256,32s200,89.72,200,200v9.626C465.709,250.392,472,264.33,472,280ZM72,232.966A33.585,33.585,0,0,1,80,232a33.985,33.985,0,0,1,5.638.471q1.446-6.45,3.262-12.794A7.992,7.992,0,0,1,96,208h16V168.859a8,8,0,0,1,1.21-4.231c15.932-25.565,37.062-46.8,61.108-61.409a155.284,155.284,0,0,1,163.364,0c24.046,14.609,45.176,35.844,61.108,61.409a8,8,0,0,1,1.21,4.231V208h16a7.99,7.99,0,0,1,6.932,11.981c1.126,3.677,2.361,7.853,2.91,10.189.18.765.334,1.537.506,2.3A34.038,34.038,0,0,1,432,232a33.585,33.585,0,0,1,8,.966V232c0-101.458-82.542-184-184-184S72,130.542,72,232ZM128,288a40.058,40.058,0,0,0,35.558,39.755C171.788,314.845,199.259,280,256,280s84.212,34.845,92.442,47.755A40.058,40.058,0,0,0,384,288V224h-8.679a48,48,0,1,1-94.642,0H263.992a8.047,8.047,0,0,1-.1,1.315L257.444,264H264a8,8,0,0,1,0,16H248a8,8,0,0,1-7.891-9.315L247.89,224H231.321a48,48,0,1,1-94.642,0H128Zm24-56a32,32,0,1,0,32-32A32.036,32.036,0,0,0,152,232Zm144,0a32,32,0,1,0,32-32A32.036,32.036,0,0,0,296,232Zm88-24V171.174c-14.462-22.593-33.31-41.33-54.626-54.281C306.557,103.029,281.87,96,256,96s-50.557,7.029-73.374,20.893C161.31,129.844,142.462,148.581,128,171.174V208h14.458a47.953,47.953,0,0,1,83.084,0h60.916a47.953,47.953,0,0,1,83.084,0ZM81.7,311.91A232.973,232.973,0,0,1,80,283.777a236.378,236.378,0,0,1,2.67-35.552A17.935,17.935,0,0,0,80,248c-13.233,0-24,14.355-24,32s10.767,32,24,32C80.569,312,81.136,311.964,81.7,311.91ZM416,283.777a218.615,218.615,0,0,0-5.733-49.947c-.384-1.632-1.449-5.307-2.838-9.83H400v64a56.063,56.063,0,0,1-56,56,8,8,0,0,1-7.155-4.422C335.951,337.823,313.987,296,256,296s-79.951,41.823-80.857,43.6A8.047,8.047,0,0,1,168,344a56.063,56.063,0,0,1-56-56V224h-7.695A216.659,216.659,0,0,0,96,283.777c0,49.869,16.739,95.794,47.133,129.315C172.9,445.921,212.982,464,256,464s83.1-18.079,112.867-50.908C399.261,379.571,416,333.646,416,283.777ZM456,280c0-17.645-10.767-32-24-32a17.954,17.954,0,0,0-2.692.228A236.7,236.7,0,0,1,432,283.777a232.973,232.973,0,0,1-1.7,28.133c.566.054,1.133.09,1.7.09C445.233,312,456,297.645,456,280Z" style="fill:url(#linear-gradient)"/></svg>
