<svg width="22" height="22" viewBox="0 0 22 22" fill="none" xmlns="http://www.w3.org/2000/svg">
<g clip-path="url(#clip0)">
<path d="M3.89905 7.76593C3.66188 7.76593 3.46936 7.95828 3.46936 8.19545C3.46936 8.43262 3.66188 8.62514 3.89905 8.62514C4.13622 8.62514 4.32874 8.43262 4.32874 8.19545C4.32874 7.95828 4.13622 7.76593 3.89905 7.76593Z" fill="white"/>
<path d="M15.938 12.9C15.8576 12.8195 15.7482 12.7741 15.6342 12.7741C15.6299 12.775 15.4647 12.7657 15.3304 12.9L15.0268 13.2037L14.0395 12.2166C16.2182 9.16258 15.8869 4.9498 13.2038 2.26694C10.1816 -0.755312 5.28952 -0.755816 2.26694 2.26694C-0.755312 5.28901 -0.755816 10.1812 2.26694 13.2038C4.94325 15.8803 9.15436 16.2237 12.2164 14.0395L13.2037 15.0268L12.9 15.3304C12.7323 15.4981 12.7322 15.7704 12.9 15.9382L18.3322 21.3699C19.1716 22.2098 20.5303 22.2103 21.3699 21.3701C22.2098 20.5308 22.2101 19.1719 21.3699 18.3324L15.938 12.9ZM13.8113 14.4192L12.8913 13.4992C12.9982 13.4034 13.1028 13.305 13.2038 13.2038C13.305 13.1028 13.4034 12.9982 13.4992 12.8915L14.4192 13.8114L13.8113 14.4192ZM2.87454 12.5962C0.187986 9.90983 0.187651 5.56126 2.87454 2.87454C5.56093 0.187986 9.9095 0.187651 12.5962 2.87454C15.2767 5.55488 15.2903 9.90245 12.5962 12.5962C9.87173 15.321 5.52434 15.2462 2.87454 12.5962ZM15.6342 13.8114L16.8493 15.0266L15.0266 16.8493L13.8114 15.6342L15.6342 13.8114ZM20.7623 20.7625C20.2588 21.2665 19.4439 21.2667 18.94 20.7625L15.6342 17.4569L17.4569 15.6342L20.7625 18.9402C21.2663 19.4435 21.2668 20.2584 20.7623 20.7625Z" fill="white"/>
<path d="M11.9888 3.48232C9.63911 1.13264 5.83251 1.13129 3.48182 3.48199C1.137 5.82731 1.137 9.64347 3.48182 11.989C5.83285 14.3398 9.63726 14.34 11.9885 11.989C14.3338 9.64347 14.3339 5.82748 11.9888 3.48232ZM11.3809 11.3812C9.36585 13.3962 6.10493 13.3967 4.08942 11.3814C2.07963 9.37089 2.07963 6.09989 4.08942 4.08942C6.10342 2.0756 9.36652 2.0751 11.3812 4.08993C13.3913 6.10006 13.3912 9.37089 11.3809 11.3812Z" fill="white"/>
<path d="M7.7354 3.43933C6.58699 3.43933 5.50808 3.88614 4.69738 4.69734C4.22741 5.16731 3.88148 5.72255 3.66932 6.34795C3.59312 6.57252 3.7133 6.81657 3.93804 6.89278C4.16313 6.96915 4.40684 6.8483 4.48304 6.62405C4.6524 6.12471 4.92901 5.68092 5.30498 5.30478C5.95354 4.65605 6.81661 4.29871 7.7354 4.29871C7.97273 4.29871 8.16509 4.10635 8.16509 3.86902C8.16509 3.63168 7.97273 3.43933 7.7354 3.43933Z" fill="white"/>
</g>
<defs>
<clipPath id="clip0">
<rect width="22" height="22" fill="white"/>
</clipPath>
</defs>
</svg>
