<svg width="15" height="15" viewBox="0 0 15 15" fill="none" xmlns="http://www.w3.org/2000/svg">
<g clip-path="url(#clip0)">
<path d="M14.2322 5.92639L13.1794 5.74779C13.0697 5.3937 12.9287 5.05216 12.7563 4.72627L13.3768 3.8583C13.64 3.48856 13.5992 2.98407 13.2765 2.66445L12.3427 1.73068C12.1673 1.55521 11.9354 1.45807 11.6878 1.45807C11.4936 1.45807 11.3087 1.51761 11.152 1.63041L10.2809 2.25084C9.94249 2.07223 9.58841 1.92496 9.22179 1.81528L9.04632 0.774973C8.97112 0.326888 8.5857 0.00100708 8.13135 0.00100708H6.81216C6.3578 0.00100708 5.97239 0.326888 5.89718 0.774973L5.71544 1.84035C5.3645 1.95002 5.02295 2.09416 4.69707 2.26964L3.83536 1.64921C3.67869 1.53641 3.49068 1.47687 3.29641 1.47687C3.04886 1.47687 2.81385 1.57401 2.64151 1.74948L1.70461 2.68325C1.38499 3.00287 1.34112 3.50736 1.60434 3.87711L2.23103 4.75761C2.05869 5.08662 1.92082 5.42817 1.81428 5.78225L0.773966 5.95773C0.325881 6.03293 0 6.41835 0 6.8727V8.19189C0 8.64624 0.325881 9.03166 0.773966 9.10686L1.83935 9.2886C1.94902 9.63955 2.09316 9.9811 2.26863 10.307L1.65134 11.1655C1.38813 11.5353 1.42886 12.0398 1.75161 12.3594L2.68538 13.2932C2.86086 13.4686 3.09273 13.5658 3.34028 13.5658C3.53455 13.5658 3.71942 13.5062 3.8761 13.3934L4.7566 12.7668C5.07308 12.9328 5.40523 13.0676 5.74678 13.1741L5.92225 14.2269C5.99746 14.675 6.38287 15.0009 6.83722 15.0009H8.15955C8.6139 15.0009 8.99932 14.675 9.07452 14.2269L9.25313 13.1741C9.60721 13.0644 9.94876 12.9234 10.2746 12.7511L11.1426 13.3715C11.2993 13.4843 11.4873 13.5438 11.6816 13.5438C11.9291 13.5438 12.161 13.4467 12.3365 13.2712L13.2702 12.3375C13.5898 12.0179 13.6337 11.5134 13.3705 11.1436L12.7501 10.2725C12.9224 9.9435 13.0666 9.60195 13.1731 9.251L14.2259 9.07553C14.674 9.00032 14.9999 8.61491 14.9999 8.16055V6.84136C15.0062 6.38701 14.6803 6.0016 14.2322 5.92639ZM14.1601 8.16055C14.1601 8.20129 14.1319 8.23576 14.0912 8.24202L12.7751 8.46137C12.6091 8.48957 12.4775 8.61177 12.4367 8.77158C12.3177 9.2322 12.1359 9.67402 11.8915 10.0845C11.8069 10.2286 11.8132 10.4073 11.9103 10.5451L12.6843 11.6356C12.7062 11.6669 12.7031 11.7139 12.6749 11.7421L11.7411 12.6759C11.7192 12.6978 11.6972 12.7009 11.6816 12.7009C11.6628 12.7009 11.6471 12.6947 11.6346 12.6853L10.5472 11.9113C10.4125 11.8142 10.2308 11.8079 10.0866 11.8925C9.67615 12.1369 9.23433 12.3187 8.77371 12.4377C8.61077 12.4785 8.48856 12.6132 8.46349 12.7762L8.24102 14.0922C8.23475 14.1329 8.20028 14.1611 8.15955 14.1611H6.84036C6.79962 14.1611 6.76515 14.1329 6.75889 14.0922L6.53955 12.7762C6.51134 12.6101 6.38914 12.4785 6.22933 12.4377C5.78125 12.3218 5.34883 12.1432 4.94461 11.9113C4.87881 11.8737 4.8036 11.8549 4.73153 11.8549C4.64693 11.8549 4.55919 11.88 4.48712 11.9332L3.39041 12.7135C3.37474 12.7229 3.35908 12.7291 3.34341 12.7291C3.33088 12.7291 3.30581 12.726 3.28387 12.7041L2.3501 11.7703C2.3219 11.7421 2.31877 11.6982 2.3407 11.6638L3.11153 10.5827C3.20867 10.4449 3.21494 10.2631 3.13033 10.119C2.88592 9.71162 2.69792 9.2698 2.57884 8.80918C2.53497 8.64938 2.40337 8.52717 2.24043 8.49897L0.914972 8.27336C0.874237 8.26709 0.846036 8.23262 0.846036 8.19189V6.8727C0.846036 6.83196 0.874237 6.7975 0.914972 6.79123L2.22163 6.57189C2.3877 6.54369 2.52244 6.42148 2.56318 6.25854C2.67911 5.79792 2.85772 5.35297 3.099 4.94248C3.1836 4.79834 3.1742 4.61974 3.07706 4.485L2.29683 3.38828C2.2749 3.35695 2.27803 3.30995 2.30623 3.28175L3.24 2.34797C3.26194 2.32604 3.28387 2.32291 3.29954 2.32291C3.31834 2.32291 3.33401 2.32917 3.34654 2.33857L4.42759 3.10941C4.56546 3.20654 4.7472 3.21281 4.89134 3.12821C5.29869 2.8838 5.74051 2.69579 6.20113 2.57672C6.36094 2.53285 6.48314 2.40124 6.51134 2.2383L6.73695 0.912846C6.74322 0.872111 6.77769 0.84391 6.81842 0.84391H8.13761C8.17835 0.84391 8.21282 0.872111 8.21908 0.912846L8.43843 2.2195C8.46663 2.38558 8.58883 2.52031 8.75177 2.56105C9.22493 2.68012 9.67615 2.865 10.096 3.11254C10.2402 3.19714 10.4188 3.19088 10.5566 3.09374L11.6377 2.31664C11.6534 2.30724 11.669 2.30097 11.6847 2.30097C11.6972 2.30097 11.7223 2.30411 11.7442 2.32604L12.678 3.25981C12.7062 3.28801 12.7093 3.33188 12.6874 3.36635L11.9134 4.45366C11.8163 4.5884 11.81 4.77014 11.8946 4.91428C12.1391 5.32477 12.3208 5.76659 12.4399 6.22721C12.4806 6.39015 12.6153 6.51235 12.7783 6.53742L14.0943 6.75989C14.1351 6.76616 14.1633 6.80063 14.1633 6.84136V8.16055H14.1601Z" fill="white"/>
<path d="M7.50152 4.26157C5.71544 4.26157 4.26465 5.71236 4.26465 7.49844C4.26465 9.28451 5.71544 10.7353 7.50152 10.7353C9.2876 10.7353 10.7384 9.28451 10.7384 7.49844C10.7384 5.71236 9.2876 4.26157 7.50152 4.26157ZM7.50152 9.88927C6.18233 9.88927 5.11068 8.81763 5.11068 7.49844C5.11068 6.17925 6.18233 5.1076 7.50152 5.1076C8.82071 5.1076 9.89235 6.17925 9.89235 7.49844C9.89235 8.81763 8.82071 9.88927 7.50152 9.88927Z" fill="white"/>
</g>
<defs>
<clipPath id="clip0">
<rect width="15" height="15" fill="white"/>
</clipPath>
</defs>
</svg>
