<svg width="22" height="22" viewBox="0 0 22 22" fill="none" xmlns="http://www.w3.org/2000/svg">
<g clip-path="url(#clip0)">
<path d="M21.9807 8.49726C21.9342 8.3547 21.811 8.25074 21.6625 8.22908L14.5388 7.1938L11.353 0.738758C11.2869 0.604081 11.1498 0.519022 11.0002 0.519022C10.8506 0.519022 10.7131 0.604081 10.6474 0.738758L7.46118 7.1942L0.33748 8.22948C0.18902 8.25114 0.0661569 8.3547 0.0192956 8.49765C-0.0267781 8.63981 0.0114197 8.79654 0.118925 8.90089L5.27406 13.9257L4.05685 21.021C4.03165 21.1687 4.09229 21.318 4.21319 21.4062C4.33487 21.4952 4.49593 21.5066 4.62785 21.4361L11.0002 18.0865L17.3718 21.4361C17.4293 21.4664 17.4927 21.4814 17.5553 21.4814C17.6368 21.4814 17.7179 21.4562 17.7868 21.4062C17.9081 21.318 17.9688 21.1687 17.9432 21.021L16.7263 13.9261L21.8815 8.90089C21.9886 8.79575 22.0272 8.63941 21.9807 8.49726Z" fill="white"/>
</g>
<defs>
<clipPath id="clip0">
<rect width="22" height="22" fill="white"/>
</clipPath>
</defs>
</svg>
